<?xml version="1.0" standalone="no"?>
<!DOCTYPE svg PUBLIC "-//W3C//DTD SVG 20010904//EN"
 "http://www.w3.org/TR/2001/REC-SVG-20010904/DTD/svg10.dtd">
<svg version="1.0" xmlns="http://www.w3.org/2000/svg"
 width="282.000000pt" height="282.000000pt" viewBox="0 0 282.000000 282.000000"
 preserveAspectRatio="xMidYMid meet">
<metadata>
Created by potrace 1.14, written by Peter Selinger 2001-2017
</metadata>
<g transform="translate(0.000000,282.000000) scale(0.100000,-0.100000)"
fill="#000000" stroke="none">
<path d="M1175 2786 c-49 -32 -135 -118 -165 -164 -13 -20 -39 -27 -205 -57
-104 -19 -214 -40 -243 -46 l-52 -10 2 -412 3 -412 198 -3 197 -2 0 -355 0
-355 -230 0 -230 0 0 -485 0 -485 960 0 960 0 0 485 0 485 -200 0 -200 0 0
925 0 925 -372 -1 -373 0 -50 -33z m515 -1171 l0 -925 200 0 200 0 0 -205 0
-205 -680 0 -680 0 0 205 0 205 235 0 235 0 0 640 0 640 -200 0 -200 0 0 155
c0 85 4 155 9 155 5 0 62 9 128 20 157 27 229 61 286 138 84 111 60 102 277
102 l190 0 0 -925z"/>
</g>
</svg>
